# xmcd CD database file
#
# Track frame offsets:
#	150
#	16798
#	34309
#	66933
#	83078
#	113481
#	132706
#	180716
#	220306
#	256678
#	265230
#	273949
#
# Disc length: 3864 seconds
#
# Revision: 0
# Processed by: cddbd v1.4PL0 Copyright (c) Steve Scherf et al.
# Submitted via: CDex 1.51
#
DISCID=a60f160c
DTITLE=Marc Cary - Listen
DYEAR=1997
DGENRE=Jazz
TTITLE0=Running Out Of Time (Epilogue)
TTITLE1=In Another Way (Part I)
TTITLE2=Throw It Away
TTITLE3=In Another Way (Part II)
TTITLE4=Conditional Statement
TTITLE5=Fallacy
TTITLE6=Leaving Home
TTITLE7=New Blues
TTITLE8=Mr. Lucky
TTITLE9=Down de Road
TTITLE10=Spiritual
TTITLE11=Runnin Out Of Time (Prologue)
EXTD=YEAR: 1997
EXTT0=
EXTT1=
EXTT2=
EXTT3=
EXTT4=
EXTT5=
EXTT6=
EXTT7=
EXTT8=
EXTT9=
EXTT10=
EXTT11=
PLAYORDER=
